<mxfile host="app.diagrams.net" agent="Mozilla/5.0 (Windows NT 10.0; Win64; x64) AppleWebKit/537.36 (KHTML, like Gecko) Chrome/132.0.0.0 Safari/537.36" version="26.0.10">
  <diagram name="Page-1" id="03018318-947c-dd8e-b7a3-06fadd420f32">
    <mxGraphModel dx="3354" dy="1258" grid="1" gridSize="10" guides="1" tooltips="1" connect="1" arrows="1" fold="1" page="1" pageScale="1" pageWidth="1100" pageHeight="850" background="none" math="0" shadow="0">
      <root>
        <mxCell id="0" />
        <mxCell id="1" parent="0" />
        <mxCell id="677b7b8949515195-10" value="" style="whiteSpace=wrap;html=1;rounded=0;shadow=0;labelBackgroundColor=none;strokeWidth=1;fillColor=none;fontFamily=Verdana;fontSize=12;align=center;comic=1;" parent="1" vertex="1">
          <mxGeometry x="30" y="50" width="180" height="520" as="geometry" />
        </mxCell>
        <mxCell id="677b7b8949515195-1" value="" style="whiteSpace=wrap;html=1;rounded=0;shadow=0;labelBackgroundColor=none;strokeColor=#000000;strokeWidth=1;fillColor=none;fontFamily=Verdana;fontSize=12;fontColor=#000000;align=center;comic=1;" parent="1" vertex="1">
          <mxGeometry x="20" y="40" width="1060" height="540" as="geometry" />
        </mxCell>
        <mxCell id="677b7b8949515195-3" value="Search" style="strokeWidth=1;shadow=0;dashed=0;align=center;html=1;shape=mxgraph.mockup.forms.searchBox;strokeColor=#999999;mainText=;strokeColor2=#008cff;fontColor=#666666;fontSize=17;align=left;spacingLeft=3;rounded=0;labelBackgroundColor=none;comic=1;" parent="1" vertex="1">
          <mxGeometry x="38.5" y="60" width="163" height="30" as="geometry" />
        </mxCell>
        <mxCell id="q4BZEvWAXVgxHDnkbYNj-130" value="Apply" style="rounded=1;fillColor=#0057D8;strokeColor=none;html=1;whiteSpace=wrap;fontColor=#ffffff;align=center;verticalAlign=middle;fontStyle=0;fontSize=12;sketch=0;" parent="1" vertex="1">
          <mxGeometry x="75.5" y="120" width="86" height="33" as="geometry" />
        </mxCell>
        <mxCell id="q4BZEvWAXVgxHDnkbYNj-132" value="" style="verticalLabelPosition=bottom;shadow=0;dashed=0;align=center;html=1;verticalAlign=top;strokeWidth=1;shape=mxgraph.mockup.navigation.scrollBar;strokeColor=#999999;barPos=99.512;fillColor2=#99ddff;strokeColor2=none;direction=north;" parent="1" vertex="1">
          <mxGeometry x="1050" y="55" width="20" height="510" as="geometry" />
        </mxCell>
        <mxCell id="zX-MKMj06BqSPDNbv460-1" value="&lt;font style=&quot;font-size: 18px;&quot;&gt;companyitassets/hwassets/departments&lt;/font&gt;" style="html=1;strokeWidth=1;shadow=0;dashed=0;shape=mxgraph.ios7ui.url;fillColor=#e0e0e0;strokeColor=#c0c0c0;buttonText=;strokeColor2=#222222;fontColor=#222222;fontSize=8;spacingTop=2;align=center;whiteSpace=wrap;" parent="1" vertex="1">
          <mxGeometry x="20" width="1050" height="32.5" as="geometry" />
        </mxCell>
        <mxCell id="NqG0voG3hVpZim7TbREO-1" value="" style="shape=table;startSize=0;container=1;collapsible=0;childLayout=tableLayout;fontSize=16;" vertex="1" parent="1">
          <mxGeometry x="220" y="55" width="820" height="520" as="geometry" />
        </mxCell>
        <mxCell id="NqG0voG3hVpZim7TbREO-47" style="shape=tableRow;horizontal=0;startSize=0;swimlaneHead=0;swimlaneBody=0;strokeColor=inherit;top=0;left=0;bottom=0;right=0;collapsible=0;dropTarget=0;fillColor=none;points=[[0,0.5],[1,0.5]];portConstraint=eastwest;fontSize=16;" vertex="1" parent="NqG0voG3hVpZim7TbREO-1">
          <mxGeometry width="820" height="40" as="geometry" />
        </mxCell>
        <mxCell id="NqG0voG3hVpZim7TbREO-48" value="Adminstration" style="shape=partialRectangle;html=1;whiteSpace=wrap;connectable=0;strokeColor=inherit;overflow=hidden;fillColor=none;top=0;left=0;bottom=0;right=0;pointerEvents=1;fontSize=16;align=left;" vertex="1" parent="NqG0voG3hVpZim7TbREO-47">
          <mxGeometry width="630" height="40" as="geometry">
            <mxRectangle width="630" height="40" as="alternateBounds" />
          </mxGeometry>
        </mxCell>
        <mxCell id="NqG0voG3hVpZim7TbREO-49" value="Select" style="shape=partialRectangle;html=1;whiteSpace=wrap;connectable=0;strokeColor=inherit;overflow=hidden;fillColor=none;top=0;left=0;bottom=0;right=0;pointerEvents=1;fontSize=16;fontColor=light-dark(#000000,#7EA6E0);" vertex="1" parent="NqG0voG3hVpZim7TbREO-47">
          <mxGeometry x="630" width="190" height="40" as="geometry">
            <mxRectangle width="190" height="40" as="alternateBounds" />
          </mxGeometry>
        </mxCell>
        <mxCell id="NqG0voG3hVpZim7TbREO-2" value="" style="shape=tableRow;horizontal=0;startSize=0;swimlaneHead=0;swimlaneBody=0;strokeColor=inherit;top=0;left=0;bottom=0;right=0;collapsible=0;dropTarget=0;fillColor=none;points=[[0,0.5],[1,0.5]];portConstraint=eastwest;fontSize=16;" vertex="1" parent="NqG0voG3hVpZim7TbREO-1">
          <mxGeometry y="40" width="820" height="40" as="geometry" />
        </mxCell>
        <mxCell id="NqG0voG3hVpZim7TbREO-3" value="Dep. 1A" style="shape=partialRectangle;html=1;whiteSpace=wrap;connectable=0;strokeColor=inherit;overflow=hidden;fillColor=none;top=0;left=0;bottom=0;right=0;pointerEvents=1;fontSize=16;align=left;" vertex="1" parent="NqG0voG3hVpZim7TbREO-2">
          <mxGeometry width="630" height="40" as="geometry">
            <mxRectangle width="630" height="40" as="alternateBounds" />
          </mxGeometry>
        </mxCell>
        <mxCell id="NqG0voG3hVpZim7TbREO-4" value="Select" style="shape=partialRectangle;html=1;whiteSpace=wrap;connectable=0;strokeColor=inherit;overflow=hidden;fillColor=none;top=0;left=0;bottom=0;right=0;pointerEvents=1;fontSize=16;fontColor=light-dark(#000000,#7EA6E0);" vertex="1" parent="NqG0voG3hVpZim7TbREO-2">
          <mxGeometry x="630" width="190" height="40" as="geometry">
            <mxRectangle width="190" height="40" as="alternateBounds" />
          </mxGeometry>
        </mxCell>
        <mxCell id="NqG0voG3hVpZim7TbREO-6" value="" style="shape=tableRow;horizontal=0;startSize=0;swimlaneHead=0;swimlaneBody=0;strokeColor=inherit;top=0;left=0;bottom=0;right=0;collapsible=0;dropTarget=0;fillColor=none;points=[[0,0.5],[1,0.5]];portConstraint=eastwest;fontSize=16;" vertex="1" parent="NqG0voG3hVpZim7TbREO-1">
          <mxGeometry y="80" width="820" height="40" as="geometry" />
        </mxCell>
        <mxCell id="NqG0voG3hVpZim7TbREO-7" value="Dep. 1B" style="shape=partialRectangle;html=1;whiteSpace=wrap;connectable=0;strokeColor=inherit;overflow=hidden;fillColor=none;top=0;left=0;bottom=0;right=0;pointerEvents=1;fontSize=16;align=left;" vertex="1" parent="NqG0voG3hVpZim7TbREO-6">
          <mxGeometry width="630" height="40" as="geometry">
            <mxRectangle width="630" height="40" as="alternateBounds" />
          </mxGeometry>
        </mxCell>
        <mxCell id="NqG0voG3hVpZim7TbREO-8" value="Select" style="shape=partialRectangle;html=1;whiteSpace=wrap;connectable=0;strokeColor=inherit;overflow=hidden;fillColor=none;top=0;left=0;bottom=0;right=0;pointerEvents=1;fontSize=16;fontColor=light-dark(#000000,#7EA6E0);" vertex="1" parent="NqG0voG3hVpZim7TbREO-6">
          <mxGeometry x="630" width="190" height="40" as="geometry">
            <mxRectangle width="190" height="40" as="alternateBounds" />
          </mxGeometry>
        </mxCell>
        <mxCell id="NqG0voG3hVpZim7TbREO-10" value="" style="shape=tableRow;horizontal=0;startSize=0;swimlaneHead=0;swimlaneBody=0;strokeColor=inherit;top=0;left=0;bottom=0;right=0;collapsible=0;dropTarget=0;fillColor=none;points=[[0,0.5],[1,0.5]];portConstraint=eastwest;fontSize=16;" vertex="1" parent="NqG0voG3hVpZim7TbREO-1">
          <mxGeometry y="120" width="820" height="40" as="geometry" />
        </mxCell>
        <mxCell id="NqG0voG3hVpZim7TbREO-11" value="Dep.. 1C" style="shape=partialRectangle;html=1;whiteSpace=wrap;connectable=0;strokeColor=inherit;overflow=hidden;fillColor=none;top=0;left=0;bottom=0;right=0;pointerEvents=1;fontSize=16;align=left;" vertex="1" parent="NqG0voG3hVpZim7TbREO-10">
          <mxGeometry width="630" height="40" as="geometry">
            <mxRectangle width="630" height="40" as="alternateBounds" />
          </mxGeometry>
        </mxCell>
        <mxCell id="NqG0voG3hVpZim7TbREO-12" value="Select" style="shape=partialRectangle;html=1;whiteSpace=wrap;connectable=0;strokeColor=inherit;overflow=hidden;fillColor=none;top=0;left=0;bottom=0;right=0;pointerEvents=1;fontSize=16;fontColor=light-dark(#000000,#7EA6E0);" vertex="1" parent="NqG0voG3hVpZim7TbREO-10">
          <mxGeometry x="630" width="190" height="40" as="geometry">
            <mxRectangle width="190" height="40" as="alternateBounds" />
          </mxGeometry>
        </mxCell>
        <mxCell id="NqG0voG3hVpZim7TbREO-14" style="shape=tableRow;horizontal=0;startSize=0;swimlaneHead=0;swimlaneBody=0;strokeColor=inherit;top=0;left=0;bottom=0;right=0;collapsible=0;dropTarget=0;fillColor=none;points=[[0,0.5],[1,0.5]];portConstraint=eastwest;fontSize=16;" vertex="1" parent="NqG0voG3hVpZim7TbREO-1">
          <mxGeometry y="160" width="820" height="40" as="geometry" />
        </mxCell>
        <mxCell id="NqG0voG3hVpZim7TbREO-15" value="Dep. 2A" style="shape=partialRectangle;html=1;whiteSpace=wrap;connectable=0;strokeColor=inherit;overflow=hidden;fillColor=none;top=0;left=0;bottom=0;right=0;pointerEvents=1;fontSize=16;align=left;" vertex="1" parent="NqG0voG3hVpZim7TbREO-14">
          <mxGeometry width="630" height="40" as="geometry">
            <mxRectangle width="630" height="40" as="alternateBounds" />
          </mxGeometry>
        </mxCell>
        <mxCell id="NqG0voG3hVpZim7TbREO-16" value="Select" style="shape=partialRectangle;html=1;whiteSpace=wrap;connectable=0;strokeColor=inherit;overflow=hidden;fillColor=none;top=0;left=0;bottom=0;right=0;pointerEvents=1;fontSize=16;fontColor=light-dark(#000000,#7EA6E0);" vertex="1" parent="NqG0voG3hVpZim7TbREO-14">
          <mxGeometry x="630" width="190" height="40" as="geometry">
            <mxRectangle width="190" height="40" as="alternateBounds" />
          </mxGeometry>
        </mxCell>
        <mxCell id="NqG0voG3hVpZim7TbREO-17" style="shape=tableRow;horizontal=0;startSize=0;swimlaneHead=0;swimlaneBody=0;strokeColor=inherit;top=0;left=0;bottom=0;right=0;collapsible=0;dropTarget=0;fillColor=none;points=[[0,0.5],[1,0.5]];portConstraint=eastwest;fontSize=16;" vertex="1" parent="NqG0voG3hVpZim7TbREO-1">
          <mxGeometry y="200" width="820" height="40" as="geometry" />
        </mxCell>
        <mxCell id="NqG0voG3hVpZim7TbREO-18" value="Dep. 2B" style="shape=partialRectangle;html=1;whiteSpace=wrap;connectable=0;strokeColor=inherit;overflow=hidden;fillColor=none;top=0;left=0;bottom=0;right=0;pointerEvents=1;fontSize=16;align=left;" vertex="1" parent="NqG0voG3hVpZim7TbREO-17">
          <mxGeometry width="630" height="40" as="geometry">
            <mxRectangle width="630" height="40" as="alternateBounds" />
          </mxGeometry>
        </mxCell>
        <mxCell id="NqG0voG3hVpZim7TbREO-19" value="Select" style="shape=partialRectangle;html=1;whiteSpace=wrap;connectable=0;strokeColor=inherit;overflow=hidden;fillColor=none;top=0;left=0;bottom=0;right=0;pointerEvents=1;fontSize=16;fontColor=light-dark(#000000,#7EA6E0);" vertex="1" parent="NqG0voG3hVpZim7TbREO-17">
          <mxGeometry x="630" width="190" height="40" as="geometry">
            <mxRectangle width="190" height="40" as="alternateBounds" />
          </mxGeometry>
        </mxCell>
        <mxCell id="NqG0voG3hVpZim7TbREO-20" style="shape=tableRow;horizontal=0;startSize=0;swimlaneHead=0;swimlaneBody=0;strokeColor=inherit;top=0;left=0;bottom=0;right=0;collapsible=0;dropTarget=0;fillColor=none;points=[[0,0.5],[1,0.5]];portConstraint=eastwest;fontSize=16;" vertex="1" parent="NqG0voG3hVpZim7TbREO-1">
          <mxGeometry y="240" width="820" height="40" as="geometry" />
        </mxCell>
        <mxCell id="NqG0voG3hVpZim7TbREO-21" value="Dep. 2C" style="shape=partialRectangle;html=1;whiteSpace=wrap;connectable=0;strokeColor=inherit;overflow=hidden;fillColor=none;top=0;left=0;bottom=0;right=0;pointerEvents=1;fontSize=16;align=left;" vertex="1" parent="NqG0voG3hVpZim7TbREO-20">
          <mxGeometry width="630" height="40" as="geometry">
            <mxRectangle width="630" height="40" as="alternateBounds" />
          </mxGeometry>
        </mxCell>
        <mxCell id="NqG0voG3hVpZim7TbREO-22" value="Select" style="shape=partialRectangle;html=1;whiteSpace=wrap;connectable=0;strokeColor=inherit;overflow=hidden;fillColor=none;top=0;left=0;bottom=0;right=0;pointerEvents=1;fontSize=16;fontColor=light-dark(#000000,#7EA6E0);" vertex="1" parent="NqG0voG3hVpZim7TbREO-20">
          <mxGeometry x="630" width="190" height="40" as="geometry">
            <mxRectangle width="190" height="40" as="alternateBounds" />
          </mxGeometry>
        </mxCell>
        <mxCell id="NqG0voG3hVpZim7TbREO-23" style="shape=tableRow;horizontal=0;startSize=0;swimlaneHead=0;swimlaneBody=0;strokeColor=inherit;top=0;left=0;bottom=0;right=0;collapsible=0;dropTarget=0;fillColor=none;points=[[0,0.5],[1,0.5]];portConstraint=eastwest;fontSize=16;" vertex="1" parent="NqG0voG3hVpZim7TbREO-1">
          <mxGeometry y="280" width="820" height="40" as="geometry" />
        </mxCell>
        <mxCell id="NqG0voG3hVpZim7TbREO-24" value="Dep. 3A" style="shape=partialRectangle;html=1;whiteSpace=wrap;connectable=0;strokeColor=inherit;overflow=hidden;fillColor=none;top=0;left=0;bottom=0;right=0;pointerEvents=1;fontSize=16;align=left;" vertex="1" parent="NqG0voG3hVpZim7TbREO-23">
          <mxGeometry width="630" height="40" as="geometry">
            <mxRectangle width="630" height="40" as="alternateBounds" />
          </mxGeometry>
        </mxCell>
        <mxCell id="NqG0voG3hVpZim7TbREO-25" value="Select" style="shape=partialRectangle;html=1;whiteSpace=wrap;connectable=0;strokeColor=inherit;overflow=hidden;fillColor=none;top=0;left=0;bottom=0;right=0;pointerEvents=1;fontSize=16;fontColor=light-dark(#000000,#7EA6E0);" vertex="1" parent="NqG0voG3hVpZim7TbREO-23">
          <mxGeometry x="630" width="190" height="40" as="geometry">
            <mxRectangle width="190" height="40" as="alternateBounds" />
          </mxGeometry>
        </mxCell>
        <mxCell id="NqG0voG3hVpZim7TbREO-26" style="shape=tableRow;horizontal=0;startSize=0;swimlaneHead=0;swimlaneBody=0;strokeColor=inherit;top=0;left=0;bottom=0;right=0;collapsible=0;dropTarget=0;fillColor=none;points=[[0,0.5],[1,0.5]];portConstraint=eastwest;fontSize=16;" vertex="1" parent="NqG0voG3hVpZim7TbREO-1">
          <mxGeometry y="320" width="820" height="40" as="geometry" />
        </mxCell>
        <mxCell id="NqG0voG3hVpZim7TbREO-27" value="Dep. 3B" style="shape=partialRectangle;html=1;whiteSpace=wrap;connectable=0;strokeColor=inherit;overflow=hidden;fillColor=none;top=0;left=0;bottom=0;right=0;pointerEvents=1;fontSize=16;align=left;" vertex="1" parent="NqG0voG3hVpZim7TbREO-26">
          <mxGeometry width="630" height="40" as="geometry">
            <mxRectangle width="630" height="40" as="alternateBounds" />
          </mxGeometry>
        </mxCell>
        <mxCell id="NqG0voG3hVpZim7TbREO-28" value="Select" style="shape=partialRectangle;html=1;whiteSpace=wrap;connectable=0;strokeColor=inherit;overflow=hidden;fillColor=none;top=0;left=0;bottom=0;right=0;pointerEvents=1;fontSize=16;fontColor=light-dark(#000000,#7EA6E0);" vertex="1" parent="NqG0voG3hVpZim7TbREO-26">
          <mxGeometry x="630" width="190" height="40" as="geometry">
            <mxRectangle width="190" height="40" as="alternateBounds" />
          </mxGeometry>
        </mxCell>
        <mxCell id="NqG0voG3hVpZim7TbREO-29" style="shape=tableRow;horizontal=0;startSize=0;swimlaneHead=0;swimlaneBody=0;strokeColor=inherit;top=0;left=0;bottom=0;right=0;collapsible=0;dropTarget=0;fillColor=none;points=[[0,0.5],[1,0.5]];portConstraint=eastwest;fontSize=16;" vertex="1" parent="NqG0voG3hVpZim7TbREO-1">
          <mxGeometry y="360" width="820" height="40" as="geometry" />
        </mxCell>
        <mxCell id="NqG0voG3hVpZim7TbREO-30" value="Dep. 3C" style="shape=partialRectangle;html=1;whiteSpace=wrap;connectable=0;strokeColor=inherit;overflow=hidden;fillColor=none;top=0;left=0;bottom=0;right=0;pointerEvents=1;fontSize=16;align=left;" vertex="1" parent="NqG0voG3hVpZim7TbREO-29">
          <mxGeometry width="630" height="40" as="geometry">
            <mxRectangle width="630" height="40" as="alternateBounds" />
          </mxGeometry>
        </mxCell>
        <mxCell id="NqG0voG3hVpZim7TbREO-31" value="Select" style="shape=partialRectangle;html=1;whiteSpace=wrap;connectable=0;strokeColor=inherit;overflow=hidden;fillColor=none;top=0;left=0;bottom=0;right=0;pointerEvents=1;fontSize=16;fontColor=light-dark(#000000,#7EA6E0);" vertex="1" parent="NqG0voG3hVpZim7TbREO-29">
          <mxGeometry x="630" width="190" height="40" as="geometry">
            <mxRectangle width="190" height="40" as="alternateBounds" />
          </mxGeometry>
        </mxCell>
        <mxCell id="NqG0voG3hVpZim7TbREO-32" style="shape=tableRow;horizontal=0;startSize=0;swimlaneHead=0;swimlaneBody=0;strokeColor=inherit;top=0;left=0;bottom=0;right=0;collapsible=0;dropTarget=0;fillColor=none;points=[[0,0.5],[1,0.5]];portConstraint=eastwest;fontSize=16;" vertex="1" parent="NqG0voG3hVpZim7TbREO-1">
          <mxGeometry y="400" width="820" height="40" as="geometry" />
        </mxCell>
        <mxCell id="NqG0voG3hVpZim7TbREO-33" value="IT Support" style="shape=partialRectangle;html=1;whiteSpace=wrap;connectable=0;strokeColor=inherit;overflow=hidden;fillColor=none;top=0;left=0;bottom=0;right=0;pointerEvents=1;fontSize=16;align=left;" vertex="1" parent="NqG0voG3hVpZim7TbREO-32">
          <mxGeometry width="630" height="40" as="geometry">
            <mxRectangle width="630" height="40" as="alternateBounds" />
          </mxGeometry>
        </mxCell>
        <mxCell id="NqG0voG3hVpZim7TbREO-34" value="Select" style="shape=partialRectangle;html=1;whiteSpace=wrap;connectable=0;strokeColor=inherit;overflow=hidden;fillColor=none;top=0;left=0;bottom=0;right=0;pointerEvents=1;fontSize=16;fontColor=light-dark(#000000,#7EA6E0);" vertex="1" parent="NqG0voG3hVpZim7TbREO-32">
          <mxGeometry x="630" width="190" height="40" as="geometry">
            <mxRectangle width="190" height="40" as="alternateBounds" />
          </mxGeometry>
        </mxCell>
        <mxCell id="NqG0voG3hVpZim7TbREO-35" style="shape=tableRow;horizontal=0;startSize=0;swimlaneHead=0;swimlaneBody=0;strokeColor=inherit;top=0;left=0;bottom=0;right=0;collapsible=0;dropTarget=0;fillColor=none;points=[[0,0.5],[1,0.5]];portConstraint=eastwest;fontSize=16;" vertex="1" parent="NqG0voG3hVpZim7TbREO-1">
          <mxGeometry y="440" width="820" height="40" as="geometry" />
        </mxCell>
        <mxCell id="NqG0voG3hVpZim7TbREO-36" value="Marketing" style="shape=partialRectangle;html=1;whiteSpace=wrap;connectable=0;strokeColor=inherit;overflow=hidden;fillColor=none;top=0;left=0;bottom=0;right=0;pointerEvents=1;fontSize=16;align=left;" vertex="1" parent="NqG0voG3hVpZim7TbREO-35">
          <mxGeometry width="630" height="40" as="geometry">
            <mxRectangle width="630" height="40" as="alternateBounds" />
          </mxGeometry>
        </mxCell>
        <mxCell id="NqG0voG3hVpZim7TbREO-37" value="Select" style="shape=partialRectangle;html=1;whiteSpace=wrap;connectable=0;strokeColor=inherit;overflow=hidden;fillColor=none;top=0;left=0;bottom=0;right=0;pointerEvents=1;fontSize=16;fontColor=light-dark(#000000,#7EA6E0);" vertex="1" parent="NqG0voG3hVpZim7TbREO-35">
          <mxGeometry x="630" width="190" height="40" as="geometry">
            <mxRectangle width="190" height="40" as="alternateBounds" />
          </mxGeometry>
        </mxCell>
        <mxCell id="NqG0voG3hVpZim7TbREO-38" style="shape=tableRow;horizontal=0;startSize=0;swimlaneHead=0;swimlaneBody=0;strokeColor=inherit;top=0;left=0;bottom=0;right=0;collapsible=0;dropTarget=0;fillColor=none;points=[[0,0.5],[1,0.5]];portConstraint=eastwest;fontSize=16;" vertex="1" parent="NqG0voG3hVpZim7TbREO-1">
          <mxGeometry y="480" width="820" height="40" as="geometry" />
        </mxCell>
        <mxCell id="NqG0voG3hVpZim7TbREO-39" value="Repairs" style="shape=partialRectangle;html=1;whiteSpace=wrap;connectable=0;strokeColor=inherit;overflow=hidden;fillColor=none;top=0;left=0;bottom=0;right=0;pointerEvents=1;fontSize=16;align=left;" vertex="1" parent="NqG0voG3hVpZim7TbREO-38">
          <mxGeometry width="630" height="40" as="geometry">
            <mxRectangle width="630" height="40" as="alternateBounds" />
          </mxGeometry>
        </mxCell>
        <mxCell id="NqG0voG3hVpZim7TbREO-40" value="Select" style="shape=partialRectangle;html=1;whiteSpace=wrap;connectable=0;strokeColor=inherit;overflow=hidden;fillColor=none;top=0;left=0;bottom=0;right=0;pointerEvents=1;fontSize=16;fontColor=light-dark(#000000,#7EA6E0);" vertex="1" parent="NqG0voG3hVpZim7TbREO-38">
          <mxGeometry x="630" width="190" height="40" as="geometry">
            <mxRectangle width="190" height="40" as="alternateBounds" />
          </mxGeometry>
        </mxCell>
      </root>
    </mxGraphModel>
  </diagram>
</mxfile>
